<svg width="480" height="480" viewBox="0 0 480 480" fill="none" xmlns="http://www.w3.org/2000/svg">
<path d="M169.848 360.24C173.849 358.824 177.948 357.7 182.112 356.88L182.616 358.728C182.673 358.946 182.805 359.136 182.99 359.264C183.176 359.392 183.401 359.448 183.624 359.424L200.112 357.504C204.648 347.16 212.976 331.488 213.096 331.248C212.976 327.336 213.096 324.048 213.096 320.304C203.664 323.808 186.216 330.456 177.096 334.704C176.89 334.836 176.731 335.032 176.64 335.26C176.55 335.488 176.533 335.738 176.592 335.976C176.592 335.976 176.76 336.576 176.976 337.44C172.512 337.44 159.144 336.792 155.928 339.84C155.428 340.536 155.183 341.384 155.232 342.24C155.04 345.552 156.696 371.28 159.336 378.84C160.704 382.8 163.584 382.368 165.552 378.576C167.83 372.866 169.292 366.862 169.896 360.744C169.896 360.432 169.824 360.456 169.848 360.24ZM167.088 338.76C170.016 338.52 170.928 338.568 177.216 338.376C178.344 342.648 180.672 351.432 181.872 355.92C177.638 356.576 173.458 357.546 169.368 358.824C168.094 352.204 167.331 345.496 167.088 338.76Z" fill="black"/>
<path d="M390.744 128.712C391.344 127.872 390.576 126.792 389.928 125.952C391.764 124.064 393.8 122.382 396 120.936C399.714 119.085 403.108 116.655 406.056 113.736C407.28 112.464 409.584 109.848 408.72 108.312C407.856 106.776 406.32 106.68 404.232 107.568C405.136 106.618 405.876 105.523 406.416 104.328C407.088 102.456 405.504 100.944 402.072 102.336C403.32 100.344 403.608 98.256 401.496 97.248C399.792 96.432 397.296 98.376 395.856 99.648C393.028 102.119 390.374 104.781 387.912 107.616C386.4 104.448 384 100.8 381 101.952C378 103.104 380.328 108.264 381.864 111.072L376.416 114.84C375.592 114.395 374.662 114.188 373.728 114.24C367.536 115.296 339.096 136.944 336.216 136.944C334.008 136.944 302.472 121.824 275.208 117.456C275.156 117.292 275.058 117.147 274.926 117.037C274.794 116.927 274.634 116.856 274.464 116.832C269.708 116.02 264.888 115.659 260.064 115.752C259.918 115.762 259.776 115.803 259.648 115.874C259.518 115.944 259.408 116.042 259.32 116.16H257.304C256.824 114.216 255.048 109.728 254.424 108C256.056 106.584 258.312 105.864 259.488 103.584C261.648 99.36 261.552 92.016 260.952 87.312C263.664 85.248 263.736 81.936 263.112 78.552C262.872 77.184 262.128 74.088 260.976 73.32C260.328 72.888 258.96 73.32 257.784 73.752C256.608 71.016 256.608 72.264 257.088 71.16C257.312 70.6512 257.442 70.1066 257.472 69.552C258.744 69.936 261.384 67.392 260.472 64.032C259.994 62.8294 259.408 61.6726 258.72 60.576C259.056 59.76 259.776 58.776 257.52 55.776C256.548 54.7278 255.286 53.9926 253.896 53.664H252.792C251.996 52.5081 250.826 51.6607 249.48 51.264C247.448 50.7456 245.292 51.0476 243.48 52.104C243 52.464 242.616 52.944 242.136 53.28C241.05 52.6211 239.806 52.2729 238.536 52.2729C237.266 52.2729 236.022 52.6211 234.936 53.28C234.3 53.5292 233.722 53.9044 233.236 54.3827C232.75 54.8614 232.364 55.433 232.104 56.064C230.928 55.6582 229.68 55.502 228.44 55.6054C227.202 55.7088 225.996 56.0692 224.904 56.664C220.758 58.9121 217.656 62.6941 216.264 67.2C216.226 67.8794 216.226 68.5606 216.264 69.24H216C212.4 68.712 207.816 77.256 211.488 83.904C211.92 84.696 212.472 85.44 213 86.304C214.536 88.704 213.936 89.424 217.368 92.352C218.376 93.216 218.544 93.144 219.168 93.672C219.792 94.2 219.552 93.936 219.912 95.28C220.108 96.0716 220.46 96.8169 220.946 97.4718C221.432 98.1268 222.044 98.6788 222.744 99.096C223 101.444 224 103.647 225.6 105.384C226.106 105.951 226.698 106.436 227.352 106.824C227.528 106.923 227.726 106.981 227.928 106.992C228.648 111.456 229.536 117.264 229.92 119.736L227.784 120.888C224.99 122.012 222.272 123.319 219.648 124.8C219.442 124.943 219.296 125.156 219.24 125.4C216.696 126.744 214.296 128.016 212.928 128.832C193.872 140.136 139.752 214.656 139.2 218.064C139.139 218.26 139.139 218.468 139.2 218.664C139.976 219.902 140.921 221.024 142.008 222C141.673 222.612 141.27 223.182 140.808 223.704C136.008 226.848 128.808 231.528 124.944 235.704C124.673 235.946 124.47 236.254 124.354 236.598C124.239 236.942 124.215 237.31 124.285 237.666C124.355 238.022 124.517 238.354 124.755 238.63C124.993 238.904 125.298 239.112 125.64 239.232C126.36 239.472 126.48 239.4 131.16 236.832C129.874 237.96 128.822 239.33 128.064 240.864C127.752 242.184 128.952 242.952 130.464 242.712C131.315 242.488 132.125 242.132 132.864 241.656C132.431 242.324 132.201 243.104 132.201 243.9C132.201 244.696 132.431 245.476 132.864 246.144C135.264 249.168 141.552 239.64 144.864 237.288C146.208 238.992 148.032 242.976 150.936 241.92C153.456 240.984 150.696 235.44 150.936 233.832C151.913 232.894 152.955 232.028 154.056 231.24C155.907 232.612 158.024 233.586 160.272 234.096C164.232 234.096 205.56 192.384 208.704 189.048C207.576 199.656 201.888 245.184 203.088 254.04C203.64 258.048 213.264 258.624 217.32 258.84C216.096 287.64 215.28 331.272 215.064 331.728C208.704 345.432 206.976 349.176 204.84 353.328C200.952 360.768 184.584 388.224 182.736 394.464C182.472 395.448 182.448 395.832 183.48 397.656C180.387 400.908 177.517 404.364 174.888 408C173.568 410.4 179.232 432.768 183.24 440.688C184.152 442.464 185.64 445.2 187.632 445.13C193.632 444.912 193.608 423.36 193.44 417.336C193.439 417.15 193.371 416.972 193.248 416.832C194.336 415.208 195.522 413.654 196.8 412.176C197.563 412.702 198.366 413.166 199.2 413.568C200.016 413.928 200.928 413.304 201.6 412.752C209.592 406.464 252.696 352.752 261.936 327.408C266.136 315.84 271.728 299.856 273.312 288.528C274.28 281.366 274.37 274.112 273.576 266.928C273.576 266.826 273.616 266.728 273.688 266.656C273.76 266.584 273.858 266.544 273.96 266.544C274.062 266.544 274.16 266.584 274.232 266.656C274.304 266.728 274.344 266.826 274.344 266.928C275.546 274.152 275.78 281.506 275.04 288.792C273.264 304.512 260.856 337.272 254.232 349.32C259.944 348.264 271.56 345.96 277.176 344.28C295.896 338.592 313.176 321.624 314.688 302.568C315.178 293.59 315.178 284.594 314.688 275.616C314.526 263.222 312.916 250.89 309.888 238.872C314.976 236.112 319.632 232.872 321.144 229.896C324.384 223.536 315.816 186.936 313.944 176.664C324.192 177.792 341.64 179.832 349.776 173.472C359.088 165.984 379.2 144.912 390.744 128.712ZM192.144 416.016C187.824 413.4 181.776 407.184 180.864 402.312C181.848 401.064 182.88 399.912 183.84 398.616C187.093 403.58 191.148 407.968 195.84 411.6C194.522 412.998 193.288 414.472 192.144 416.016ZM382.944 111.744C383.068 111.665 383.158 111.541 383.192 111.398C383.228 111.255 383.208 111.104 383.136 110.976C382.296 109.416 379.776 103.92 381.528 103.296C382.536 102.912 383.424 103.536 384.168 104.376C385.304 105.817 386.188 107.44 386.784 109.176C386.828 109.317 386.91 109.443 387.022 109.542C387.132 109.64 387.268 109.706 387.412 109.733C387.558 109.76 387.708 109.747 387.848 109.696C387.986 109.644 388.108 109.556 388.2 109.44C390.6 106.776 396.216 100.704 399.384 99.072C401.784 97.824 402.36 100.128 396.48 105.504C395.13 106.534 393.832 107.631 392.592 108.792C392.524 108.886 392.486 109 392.486 109.116C392.486 109.232 392.524 109.346 392.592 109.44C392.592 110.064 393.096 110.76 393.96 110.112C396.046 108.281 398.252 106.589 400.56 105.048C401.738 104.211 403.108 103.683 404.544 103.512C403.824 105.72 397.128 111.72 396.552 112.392C396.37 112.556 396.258 112.785 396.242 113.03C396.228 113.274 396.308 113.516 396.468 113.701C396.63 113.887 396.856 114.002 397.1 114.022C397.346 114.042 397.588 113.965 397.776 113.808C400.44 112.08 405.096 108.048 406.704 108.648C408.312 109.248 403.536 113.712 402.336 114.768C395.448 120.744 397.224 116.904 389.256 125.016C385.788 121.217 381.806 117.921 377.424 115.224L382.944 111.744ZM278.664 226.536C278.256 223.224 277.752 219.648 277.128 215.928L278.16 214.56C282.96 208.392 284.4 198.576 283.944 190.872C286.512 202.128 288.552 213.192 290.112 224.184L278.664 226.536ZM242.976 144.36C236.664 139.56 226.512 131.28 220.608 125.616L230.208 120.816C239.024 129.05 246.57 138.545 252.6 148.992C261.822 165.932 268.662 184.063 272.928 202.872L238.704 154.464L243.168 145.2C243.228 145.057 243.24 144.9 243.206 144.75C243.172 144.599 243.092 144.463 242.976 144.36ZM259.2 117.144C259.344 117.408 261 120.936 263.52 127.104C263.52 127.368 263.064 133.368 262.848 135.48C259.784 134.266 256.896 132.652 254.256 130.68C254.784 128.592 257.16 119.112 257.328 116.976L259.2 117.144ZM250.68 142.92C250.848 142.488 251.016 141.912 251.208 141.24L252.816 142.08C253.728 142.68 253.368 140.856 254.184 146.136C254.184 147.024 254.424 148.008 254.472 149.088C253.368 147.096 252 144.96 250.704 142.92H250.68ZM249.336 140.904C244.802 134.473 239.64 128.508 233.928 123.096L252 130.944C251.304 132.6 250.296 137.664 249.36 140.904H249.336ZM267.792 154.968C265.392 148.416 263.544 141.096 262.632 139.176C262.686 138.577 262.686 137.975 262.632 137.376C262.98 137.505 263.342 137.586 263.712 137.616C263.944 137.619 264.168 137.537 264.344 137.387C264.522 137.238 264.638 137.029 264.672 136.8C264.864 136.008 265.176 132 265.224 131.112C272.206 148.739 278.034 166.801 282.672 185.184C269.112 156.336 271.2 164.688 267.816 154.968H267.792ZM287.64 200.784C282.168 174.552 272.544 141.84 261.6 117.6C265.62 117.602 269.632 117.923 273.6 118.56C275.64 136.8 273.936 136.176 275.304 136.896C276.672 137.616 284.904 140.928 286.128 141.432C286.008 143.28 287.736 196.128 287.664 200.784H287.64ZM260.016 74.856C261.268 77.5863 261.708 80.6182 261.288 83.592C261.092 84.3491 260.692 85.0368 260.128 85.5788C259.564 86.1212 258.862 86.4964 258.098 86.6631C257.336 86.8298 256.54 86.7814 255.802 86.523C255.064 86.2647 254.414 85.8065 253.92 85.2C252.774 82.7878 251.914 80.2508 251.352 77.64C252 76.8 258.912 75.12 260.016 74.856ZM226.992 98.856C226.116 98.4567 225.218 98.1046 224.304 97.8C223.69 97.5478 223.144 97.1585 222.704 96.662C222.264 96.1654 221.944 95.575 221.768 94.9353C221.592 94.296 221.564 93.6249 221.688 92.9729C221.812 92.3214 222.082 91.7066 222.48 91.176C223.992 89.904 225.36 89.976 226.608 91.872C227.4 93.336 227.376 93.456 227.736 93.6C227.84 93.6454 227.952 93.6685 228.064 93.6672C228.176 93.6659 228.288 93.6406 228.39 93.593C228.492 93.5455 228.584 93.4761 228.656 93.3905C228.73 93.305 228.784 93.2046 228.816 93.096C229.172 91.594 229.228 90.0362 228.984 88.512C228.696 86.856 228.648 79.512 228.696 79.272C229.398 79.6416 230.184 79.8157 230.976 79.776C235.32 79.608 236.184 77.376 237.912 75.552C239.904 75.744 240.312 76.704 242.568 75.552C243.624 74.9511 244.594 74.2084 245.448 73.344C246.138 73.6263 246.804 73.9636 247.44 74.352C248.878 75.0436 250.5 75.2561 252.068 74.9581C253.636 74.6601 255.068 73.8672 256.152 72.696C256.416 73.2 256.656 73.704 256.872 74.232C254.666 74.9166 252.59 75.9626 250.728 77.328C250.32 77.832 250.92 80.568 251.064 81.216C249.054 81.4691 247.108 82.0957 245.328 83.064C244.968 81.816 244.176 79.488 242.928 78.84C242.552 78.7252 242.152 78.7252 241.776 78.84C239.616 79.176 231.864 81.504 230.928 82.776C230.112 83.664 232.44 90.528 233.16 91.656C235.92 95.928 244.008 94.68 245.52 89.688C245.894 88.0128 245.894 86.2752 245.52 84.6C246.216 84.6 248.304 83.856 248.544 83.784C250.2 87.504 250.68 87.72 252.6 91.728C252.336 91.944 251.904 92.304 251.544 92.544C249.84 93.672 249.48 93.48 249.576 93.96C249.604 94.0551 249.666 94.1372 249.75 94.19C249.834 94.2432 249.934 94.2637 250.032 94.248C251.04 94.104 252.024 93.83 252.96 93.432C253.52 93.223 253.982 92.8119 254.256 92.28C254.928 90.768 251.208 85.08 249.744 83.376C250.032 83.376 250.704 82.896 251.208 82.632C251.88 85.32 252.336 87.432 254.928 88.488C255.678 88.7708 256.476 88.8995 257.276 88.8668C258.076 88.8336 258.86 88.6394 259.584 88.296C259.968 92.52 259.896 99.384 257.88 103.128C256.848 105.072 254.304 105.816 252.672 107.424C252.192 107.88 252.504 108.528 252.672 109.224C255.336 116.64 255.384 116.616 255.24 117.576C254.534 121.56 253.548 125.49 252.288 129.336C251.688 129.072 244.944 125.496 231.744 120.36C231.336 117.648 229.152 103.176 228.456 100.512C228.504 99.576 228.384 99.36 226.992 98.736V98.856ZM243.792 89.064C243.024 91.68 239.4 92.808 236.808 92.088C234.216 91.368 234.048 90.048 232.824 86.928C232.25 85.7363 231.854 84.4665 231.648 83.16C232.44 82.296 241.104 80.52 242.184 80.352C243.698 82.9436 244.268 85.9802 243.792 88.944V89.064ZM149.88 233.16C148.968 234.048 150.192 236.952 150.384 239.472C150.384 239.688 150.384 240.624 150.24 240.696C148.92 241.128 147.696 239.136 146.952 237.936C146.208 236.736 145.464 235.104 144.288 235.536C141.888 236.664 136.32 244.056 134.136 244.824C133.032 242.712 139.344 236.688 139.56 236.352C139.653 236.198 139.701 236.02 139.7 235.842C139.7 235.662 139.649 235.484 139.556 235.332C139.461 235.178 139.327 235.054 139.167 234.97C139.007 234.888 138.828 234.852 138.648 234.864C138.216 234.864 137.928 235.248 137.256 235.848C135.212 237.842 132.873 239.51 130.32 240.792C132.634 238.136 135.111 235.628 137.736 233.28C137.866 233.146 137.957 232.98 138 232.8C138 232.8 137.496 231.528 136.512 232.032C135.12 232.8 128.352 236.712 126.216 237.72C125.928 237.528 126.096 237.24 126.216 236.952C129.6 232.8 137.04 227.76 141.6 224.568C142.135 224.016 142.581 223.386 142.92 222.696C146.078 225.634 149.447 228.338 153 230.784C151.906 231.502 150.863 232.296 149.88 233.16ZM205.728 254.976C205.2 254.64 204.816 254.328 204.744 253.896C203.424 244.104 210.768 188.616 210.648 186.432C210.648 186.304 210.622 186.177 210.572 186.059C210.524 185.941 210.45 185.834 210.358 185.745C210.266 185.655 210.158 185.585 210.038 185.538C209.92 185.491 209.792 185.469 209.664 185.472C208.44 185.472 210.6 185.472 180.024 214.752C178.008 216.648 162.6 231.384 160.032 232.368C156.504 232.104 143.232 221.52 141.072 218.184C145.248 209.736 195.888 140.232 213.408 129.6C214.752 128.784 217.056 127.512 219.576 126.168C220.448 126.99 221.386 127.736 222.384 128.4C227.952 133.68 235.704 140.256 241.584 145.2L237 154.296C236.93 154.416 236.894 154.553 236.894 154.692C236.894 154.831 236.93 154.968 237 155.088C274.224 208.488 273.672 207.888 273.912 207.888C276.298 220.228 277.782 232.724 278.352 245.28C278.352 248.664 278.352 248.376 278.496 248.136C278.64 247.896 278.496 248.304 278.496 248.304C272.688 254.64 215.208 260.544 205.728 254.976ZM338.4 175.464C327.528 176.976 315.24 174.72 312.864 174.624C311.544 168.226 308.912 162.171 305.136 156.84C305.078 156.762 304.994 156.709 304.898 156.692C304.804 156.674 304.706 156.693 304.624 156.744C304.542 156.795 304.482 156.876 304.456 156.97C304.432 157.063 304.442 157.162 304.488 157.248C305.88 160.08 310.536 172.296 311.688 175.272C311.328 176.424 322.536 222.768 319.368 229.008C316.536 234.648 300.048 241.752 294.096 243.792C292.92 230.43 290.996 217.146 288.336 204C289.152 197.088 288.096 156 287.784 140.808C287.774 140.632 287.716 140.461 287.614 140.317C287.512 140.172 287.372 140.06 287.208 139.992L276.432 135.456C276.384 129.753 276.022 124.056 275.352 118.392C302.256 123.048 333.6 138.432 336.216 138.456C340.008 138.456 368.184 116.856 374.016 115.992C376.608 115.584 387.744 125.304 389.04 127.992C377.664 143.88 357.672 164.76 348.408 171.984C345.424 173.979 341.978 175.177 338.4 175.464Z" fill="black"/>
<path d="M241.32 84.264C241.29 84.1065 241.23 83.9564 241.142 83.8224C241.054 83.688 240.94 83.5724 240.808 83.482C240.674 83.3921 240.526 83.3289 240.368 83.2961C240.212 83.2634 240.05 83.2621 239.892 83.2922C239.734 83.3219 239.584 83.3825 239.45 83.4707C239.316 83.5588 239.2 83.6719 239.11 83.8045C239.02 83.9372 238.956 84.0864 238.924 84.2435C238.892 84.4006 238.89 84.5625 238.92 84.72C239.4 87.12 239.496 87.672 240.552 87.672C240.752 87.6724 240.948 87.6236 241.124 87.5293C241.3 87.4346 241.45 87.298 241.558 87.1309C241.668 86.9642 241.734 86.7727 241.752 86.5737C241.768 86.3747 241.736 86.1748 241.656 85.992C241.584 85.608 241.368 84.48 241.32 84.264ZM248.664 100.152C250.224 100.608 251.712 99.864 251.664 99.48C251.616 99.096 251.664 99.288 249.552 98.496C248.136 97.968 246.576 96.096 246.024 96.384C245.472 96.672 246.312 98.208 246.504 98.496C247.018 99.2749 247.778 99.8583 248.664 100.152ZM292.56 77.352C289.416 90.528 287.112 101.712 286.728 103.944C286.472 104.915 286.424 105.929 286.584 106.92C287.856 109.632 304.296 114.984 306.384 113.928C308.472 112.872 313.896 100.656 320.208 88.056C324.074 88.1795 327.944 87.898 331.752 87.216C335.762 86.4803 339.664 85.2467 343.368 83.544C351.48 79.8 360.36 63.768 361.56 55.704C362.46 46.9488 360.606 38.1312 356.256 30.48C336.12 -4.44 277.056 14.352 281.856 53.136C283.226 62.0103 286.92 70.3649 292.56 77.352ZM307.2 105.936C307.2 106.32 306.768 106.272 304.8 105.936C300.774 105.43 296.876 104.185 293.304 102.264C291.624 101.352 291.168 101.16 291.336 100.752C291.504 100.344 291.864 100.488 294.456 101.208C294.696 101.208 302.136 103.608 304.272 104.352C307.032 105.6 307.2 105.6 307.2 105.936ZM306.768 66.888C309.33 67.0207 311.884 66.4922 314.184 65.352C316.32 66.3871 318.632 67.0141 321 67.2C316.968 74.712 308.784 90.024 306.144 98.184L295.968 95.376C298.368 89.472 303.672 75.648 306.72 66.888H306.768ZM305.928 64.896C304.136 64.6255 302.482 63.7745 301.222 62.4742C299.96 61.1734 299.16 59.4951 298.944 57.696C298.272 52.896 301.344 47.52 305.976 48.792C308.88 49.584 309.24 51.888 308.736 54.792C308.304 56.904 306.744 62.208 305.88 64.8L305.928 64.896ZM312.456 59.136C312.712 57.5655 313.302 56.0679 314.184 54.744C314.604 54.0223 315.218 53.4327 315.956 53.0426C316.694 52.6521 317.526 52.4767 318.36 52.536C320.136 53.064 320.904 56.424 319.44 58.536C318.032 60.4032 316.282 61.9837 314.28 63.192C313.59 62.7879 313.042 62.1827 312.708 61.4575C312.374 60.7327 312.268 59.9223 312.408 59.136H312.456ZM290.4 28.632C301.152 15.696 321.384 10.56 336 15.888C343.94 18.6136 350.618 24.1322 354.792 31.416C358.93 38.6966 360.7 47.0841 359.856 55.416C358.752 62.88 350.256 78.384 342.792 81.816C335.968 84.929 328.522 86.4393 321.024 86.232C320.208 86.232 319.344 86.232 319.032 86.808C317.616 89.688 315.024 95.256 312.48 100.488C310.722 99.6397 308.902 98.9332 307.032 98.376C309.816 90.408 318.6 74.76 322.776 67.176C326.394 67.4858 330.032 66.8579 333.336 65.352C334.228 64.882 334.968 64.1673 335.47 63.2911C335.97 62.4153 336.212 61.4147 336.164 60.4067C336.116 59.3991 335.78 58.426 335.2 57.6013C334.618 56.777 333.814 56.1351 332.88 55.752C329.16 53.928 325.824 58.296 323.88 61.968C323.352 62.928 322.752 64.056 322.08 65.328C320.138 65.2006 318.224 64.8048 316.392 64.152C318.216 62.8691 319.836 61.3156 321.192 59.544C321.952 58.3964 322.336 57.0415 322.294 55.666C322.25 54.2902 321.782 52.9619 320.952 51.864C320.3 51.1069 319.394 50.6134 318.404 50.4764C317.414 50.3393 316.408 50.5684 315.576 51.12C313.894 52.1529 312.548 53.6487 311.696 55.4282C310.846 57.2077 310.526 59.1953 310.776 61.152C311.036 62.2564 311.632 63.254 312.48 64.008C310.906 64.6599 309.216 64.9868 307.512 64.968C308.472 62.136 310.032 57.024 310.44 54.936C310.696 53.7456 310.752 52.5212 310.608 51.312C310.422 50.2743 309.94 49.3121 309.22 48.5415C308.502 47.7705 307.574 47.2246 306.552 46.968C300.72 45.312 296.424 51.768 297.264 57.792C297.5 59.9507 298.428 61.9754 299.906 63.5664C301.384 65.1574 303.336 66.2295 305.472 66.624C302.4 75.264 297.6 89.208 295.2 95.16L289.92 93.792C293.304 76.8 293.712 77.208 293.232 76.992C287.778 70.0394 284.29 61.7516 283.128 52.992C282.562 48.6484 282.918 44.2346 284.17 40.0378C285.422 35.8406 287.546 31.9544 290.4 28.632ZM323.712 65.472C325.392 62.424 328.752 55.752 332.016 57.384C332.668 57.6471 333.238 58.0835 333.66 58.646C334.084 59.2084 334.344 59.8756 334.416 60.576C334.368 64.8 327.792 65.544 323.616 65.472H323.712ZM415.584 76.056C418.476 74.3551 421.892 73.7743 425.184 74.424C428.8 74.4886 432.254 75.9343 434.838 78.4647C437.424 80.9952 438.938 84.418 439.078 88.032C436.905 86.7705 434.362 86.2957 431.88 86.688C425.856 87.216 417.984 90.48 419.04 96.288C419.904 101.088 426.24 100.44 431.04 99.144C435.84 97.848 439.654 95.496 440.64 90.864C446.47 95.112 447.84 102.552 448.08 109.824C448.08 109.926 448.119 110.023 448.193 110.095C448.263 110.167 448.364 110.208 448.464 110.208C448.564 110.208 448.665 110.167 448.734 110.095C448.809 110.023 448.848 109.926 448.848 109.824C449.014 101.688 447.552 93.72 440.902 89.088C440.972 87.0044 440.614 84.9286 439.859 82.9859C439.104 81.0436 437.956 79.2751 436.499 77.7871C435.038 76.2995 433.29 75.1239 431.362 74.3311C429.434 73.5386 427.364 73.1455 425.28 73.176C421.948 72.6895 418.552 73.3859 415.68 75.144C414.792 75.576 415.2 76.224 415.584 76.056ZM437.472 93.264C434.76 96.816 427.08 98.664 423.528 98.064C422.208 97.848 421.128 97.296 420.84 95.928C419.976 91.128 428.256 88.512 433.2 88.344C435.212 88.1895 437.219 88.7044 438.912 89.808C438.729 91.063 438.236 92.2516 437.472 93.264ZM404.592 48C407.16 44.832 405.432 39.312 398.256 39.288C395.472 39.288 394.128 42.12 394.32 44.832C394.752 51.288 402.024 51.096 404.592 48ZM396 44.712C396 43.128 396.744 41.064 398.4 41.088C402.264 41.088 404.04 42.888 404.04 44.88C403.944 49.416 395.688 51.768 396 44.712ZM395.016 316.8C373.92 308.376 364.128 349.152 346.896 384.192C346.786 385.664 346.836 387.146 347.04 388.608C347.04 392.28 347.448 416.592 349.584 419.352C350.16 420.456 352.584 419.352 353.712 418.656C363.292 412.726 372.32 405.946 380.688 398.4C380.76 398.318 380.812 398.224 380.846 398.12C380.878 398.016 380.89 397.908 380.88 397.8C385.344 391.44 402.072 358.32 406.128 341.712C408.96 329.952 406.152 321.192 395.016 316.8ZM402.552 347.28C391.258 345.832 380.338 342.266 370.368 336.768C375.984 326.136 382.92 314.016 394.368 318.576C407.112 323.64 406.848 334.128 402.552 347.208V347.28ZM362.616 409.68C361.878 409.062 361.074 408.53 360.216 408.096C356.972 406.448 353.226 406.086 349.728 407.088C349.488 404.232 348.12 385.656 348.12 385.488C366.096 392.064 360.552 389.208 378.36 398.064C376.488 399.84 369.456 404.76 362.616 409.632V409.68ZM375 340.224C377.34 341.502 379.744 342.664 382.2 343.704C376.698 352.344 371.838 361.378 367.656 370.728C363.624 379.152 363.768 379.104 359.664 388.296C357.264 387.528 354.864 386.808 352.464 386.088C355.056 380.928 373.488 343.2 375 340.176V340.224ZM360.6 388.536C368.4 374.544 376.344 357.144 383.16 344.016C385.56 345.024 387.96 345.84 390.36 346.56C389.088 348.96 385.368 355.344 384.384 357.192C383.4 359.04 373.536 378.48 372.84 379.968C371.736 382.368 368.712 389.064 367.776 391.2C365.328 390.12 362.976 389.304 360.504 388.488L360.6 388.536ZM368.64 391.512C370.104 388.848 376.128 377.664 376.872 376.224C378 373.992 390.576 348.288 391.272 346.8C393.48 347.424 395.808 347.952 397.296 348.24C392.904 360.24 380.256 383.352 375.696 394.752C371.544 392.808 370.608 392.328 368.544 391.464L368.64 391.512ZM370.104 337.464L374.4 339.864C365.742 354.608 358.202 369.978 351.84 385.848L348.24 384.744C362.184 355.032 362.832 351.144 370.008 337.416L370.104 337.464ZM379.992 396.84L376.368 395.112C380.28 387.432 392.52 367.728 398.112 348.408C399.456 348.648 400.776 348.864 402.048 349.032C395.88 365.488 388.476 381.454 379.896 396.792L379.992 396.84ZM304.8 412.416C305.756 411.624 306.44 410.552 306.754 409.35C307.068 408.148 306.998 406.878 306.552 405.72C306.348 404.048 305.582 402.494 304.378 401.316C303.174 400.138 301.604 399.404 299.928 399.238C298.252 399.07 296.568 399.478 295.156 400.394C293.742 401.31 292.682 402.682 292.152 404.28C289.08 402.288 285.744 400.176 282.552 398.16C284.952 394.968 292.008 396.384 292.728 399C292.744 399.102 292.8 399.194 292.882 399.254C292.966 399.314 293.07 399.34 293.172 399.324C293.274 399.308 293.364 399.252 293.426 399.17C293.486 399.086 293.512 398.982 293.496 398.88C293.136 394.704 284.448 392.256 280.944 397.176C277.848 395.28 274.008 392.976 270.792 391.224C273.552 388.824 279.72 390.168 280.392 392.664C280.424 392.75 280.484 392.82 280.564 392.866C280.642 392.91 280.736 392.926 280.824 392.908C280.914 392.89 280.994 392.842 281.052 392.77C281.108 392.7 281.138 392.61 281.136 392.52C280.824 388.632 272.784 386.016 269.136 390.288C267.608 389.432 266 388.724 264.336 388.176C264.032 388.05 263.698 388.014 263.374 388.074C263.05 388.134 262.75 388.286 262.512 388.512C256.44 396.072 235.968 415.704 226.512 417.984C226.274 418.02 226.05 418.118 225.862 418.268C225.674 418.418 225.53 418.614 225.442 418.838C225.354 419.062 225.326 419.306 225.362 419.542C225.4 419.78 225.498 420.004 225.648 420.192C227.724 422.3 230.102 424.088 232.704 425.496C230.304 427.896 228.432 430.056 227.04 431.616C226.32 432.384 225.936 447.072 226.56 450.314C226.652 450.628 226.858 450.903 227.136 451.082C230.16 453.146 269.112 469.994 273.096 467.738C275.76 466.224 307.56 433.128 308.064 432.12C308.832 430.536 308.568 419.976 308.52 415.752C308.328 414.48 305.952 413.112 304.8 412.416ZM228 444.122V438.768C237.96 443.568 260.76 453.36 269.4 456.096C271.608 456.816 271.8 456.72 272.952 456.096C279.552 451.872 302.856 425.616 307.128 421.608V426.672C294.168 439.658 272.16 462.41 271.752 461.114C269.376 460.97 230.064 445.082 228 444.122ZM304.2 404.328C305.062 405.782 305.526 407.438 305.544 409.128C305.536 409.666 305.404 410.194 305.158 410.674C304.912 411.152 304.56 411.568 304.128 411.888C302.112 410.544 298.296 408.048 293.784 405.12C296.256 400.248 301.752 400.176 304.104 404.328H304.2ZM227.4 419.688C237.624 416.664 257.04 397.944 263.568 389.832C265.138 390.27 266.654 390.89 268.08 391.68C265.68 396.144 268.248 401.04 269.16 400.344C269.664 399.96 268.752 399.816 268.608 397.464C268.546 395.746 268.936 394.042 269.736 392.52C273.048 394.248 276.936 396.504 280.224 398.4C278.208 402.888 280.632 407.328 281.472 406.68C282.312 406.032 281.088 406.176 280.944 403.824C280.886 402.282 281.18 400.746 281.808 399.336C285.192 401.328 288.648 403.392 291.816 405.336C291.328 406.532 291.134 407.828 291.25 409.114C291.368 410.4 291.792 411.64 292.488 412.728C292.52 412.768 292.558 412.804 292.604 412.83C292.648 412.854 292.698 412.872 292.748 412.878C292.8 412.884 292.852 412.882 292.902 412.868C292.952 412.854 292.998 412.832 293.04 412.8C293.08 412.768 293.116 412.73 293.14 412.684C293.166 412.64 293.184 412.59 293.19 412.538C293.196 412.488 293.194 412.436 293.18 412.386C293.166 412.336 293.144 412.288 293.112 412.248C292.68 411.294 292.468 410.256 292.488 409.21C292.508 408.164 292.762 407.136 293.232 406.2C298.824 409.608 303.336 412.464 304.728 413.4C304.464 413.64 279.432 435.912 270.912 442.538C265.32 441.072 235.968 426.504 227.4 419.688ZM228.312 433.056C239.184 437.856 263.88 448.992 269.568 450.074C270.552 450.266 270.936 450.336 272.808 448.848C280.8 442.442 306.792 415.248 307.032 415.536C307.044 415.608 307.044 415.68 307.032 415.752V420.552C301.68 424.848 271.92 456.096 271.44 454.608C269.04 454.608 230.04 438.698 228.048 437.808C228 436.8 228.216 434.112 228.312 433.056ZM272.016 466.128C269.616 467.498 233.064 452.64 228.168 449.616C227.984 448.084 227.896 446.548 227.904 445.008C238.416 450.192 268.992 463.104 271.8 462.986C275.904 462.768 304.92 430.104 306.984 427.824C307.008 429.05 306.886 430.274 306.624 431.472C306.216 432.264 273.6 465.242 272.016 466.128ZM73.175 330.84C73.343 333.408 73.463 335.64 73.463 337.728C73.463 338.046 73.5896 338.352 73.8143 338.576C74.0395 338.802 74.3445 338.928 74.663 338.928C74.9811 338.928 75.2866 338.802 75.5113 338.576C75.7365 338.352 75.863 338.046 75.863 337.728C75.863 335.496 75.743 333.288 75.575 330.672C75.5528 330.354 75.4048 330.058 75.164 329.848C74.9231 329.638 74.6093 329.534 74.2908 329.556C73.9727 329.578 73.6764 329.726 73.4669 329.966C73.2575 330.208 73.1528 330.522 73.175 330.84ZM438.864 282.72C438.707 282.73 438.554 282.77 438.41 282.838C438.27 282.908 438.144 283.004 438.044 283.124C437.939 283.242 437.86 283.38 437.812 283.528C437.764 283.678 437.747 283.836 437.76 283.992C437.904 286.2 438.048 288.576 438.048 290.88C438.048 291.198 438.174 291.504 438.401 291.728C438.624 291.954 438.929 292.08 439.248 292.08C439.566 292.08 439.872 291.954 440.094 291.728C440.321 291.504 440.448 291.198 440.448 290.88C440.448 288.48 440.304 286.08 440.134 283.824C440.125 283.668 440.086 283.514 440.016 283.374C439.946 283.232 439.85 283.106 439.732 283.004C439.614 282.9 439.475 282.822 439.326 282.774C439.178 282.726 439.021 282.706 438.864 282.72ZM66.959 324.864C67.2771 324.864 67.5826 324.738 67.8073 324.512C68.0325 324.288 68.159 323.982 68.159 323.664C68.159 323.346 68.0325 323.04 67.8073 322.816C67.5826 322.59 67.2771 322.464 66.959 322.464C64.055 322.464 61.631 322.68 59.231 322.632C58.9103 322.632 58.6027 322.758 58.374 322.982C58.1449 323.206 58.0131 323.512 58.007 323.832C58.007 324.15 58.1336 324.456 58.3583 324.68C58.5835 324.906 58.8885 325.032 59.207 325.032C61.679 325.08 64.391 324.984 66.959 324.864ZM431.424 275.616C428.544 275.616 426.12 275.784 423.696 275.808C423.378 275.808 423.072 275.934 422.848 276.16C422.622 276.384 422.496 276.69 422.496 277.008C422.496 277.326 422.622 277.632 422.848 277.856C423.072 278.082 423.378 278.208 423.696 278.208C426.288 278.208 428.976 278.208 431.568 278.016C431.886 277.996 432.184 277.852 432.396 277.614C432.606 277.376 432.714 277.062 432.696 276.744C432.676 276.426 432.532 276.128 432.294 275.916C432.054 275.704 431.742 275.596 431.424 275.616ZM72.527 310.032C72.671 312.24 72.815 314.616 72.815 316.92C72.8211 317.236 72.9494 317.538 73.1733 317.762C73.3967 317.986 73.6987 318.114 74.015 318.12C74.3331 318.12 74.6386 317.994 74.8633 317.768C75.0885 317.544 75.215 317.238 75.215 316.92C75.215 314.52 75.071 312.12 74.927 309.864C74.9048 309.546 74.7568 309.25 74.516 309.04C74.2751 308.83 73.9613 308.726 73.6428 308.748C73.3247 308.77 73.0284 308.918 72.8189 309.158C72.6095 309.4 72.5048 309.714 72.527 310.032ZM439.798 270.072C439.798 267.672 439.654 265.272 439.488 263.016C439.466 262.698 439.318 262.402 439.078 262.192C438.838 261.982 438.524 261.878 438.205 261.9C437.886 261.922 437.59 262.07 437.38 262.31C437.171 262.552 437.066 262.866 437.088 263.184C437.232 265.392 437.376 267.768 437.376 270.072C437.376 270.39 437.502 270.696 437.729 270.92C437.952 271.146 438.257 271.272 438.576 271.272C438.894 271.272 439.204 271.146 439.431 270.922C439.662 270.698 439.793 270.392 439.798 270.072ZM90.239 324.552C90.3965 324.546 90.5515 324.508 90.6946 324.442C90.8377 324.376 90.9669 324.282 91.0738 324.166C91.1807 324.05 91.264 323.916 91.3181 323.766C91.3727 323.618 91.3976 323.462 91.391 323.304C91.3666 322.99 91.2248 322.696 90.9931 322.482C90.7618 322.27 90.4581 322.152 90.143 322.152C87.239 322.272 84.815 322.368 82.391 322.32C82.0725 322.32 81.7675 322.446 81.5423 322.672C81.3176 322.896 81.191 323.202 81.191 323.52C81.191 323.838 81.3176 324.144 81.5423 324.368C81.7675 324.594 82.0725 324.72 82.391 324.72C84.959 324.768 87.647 324.672 90.239 324.552ZM454.704 275.304C452.304 275.424 449.638 275.496 446.976 275.496C446.819 275.49 446.662 275.516 446.509 275.572C446.361 275.628 446.23 275.714 446.112 275.822C445.998 275.932 445.907 276.064 445.846 276.21C445.785 276.356 445.75 276.514 445.75 276.672C445.75 276.992 445.876 277.3 446.103 277.53C446.326 277.758 446.631 277.89 446.95 277.896C449.686 277.896 451.894 277.896 454.8 277.704C454.957 277.698 455.11 277.66 455.254 277.594C455.398 277.528 455.529 277.434 455.633 277.318C455.742 277.202 455.825 277.068 455.878 276.918C455.934 276.77 455.956 276.614 455.952 276.456C455.921 276.144 455.777 275.854 455.546 275.642C455.319 275.428 455.018 275.308 454.704 275.304ZM35.0868 253.44C35.3988 253.68 103.079 243.648 105.983 241.872C106.144 241.754 106.272 241.598 106.356 241.418C106.44 241.238 106.477 241.038 106.463 240.84C106.463 237.744 102.407 208.68 100.463 201.432C100.223 200.544 99.983 199.656 99.431 199.344C95.759 197.136 31.0549 209.328 27.1909 211.824C27.0862 211.886 26.9957 211.97 26.9254 212.068C26.8551 212.168 26.8067 212.28 26.7828 212.4C25.9668 215.304 32.9988 252 35.0868 253.44ZM28.2469 212.976C32.8549 210.888 91.583 200.136 98.303 200.976C99.935 205.176 104.303 235.944 104.591 240.456C101.255 241.44 35.9989 252.648 35.7589 252.696C35.5189 252.744 35.4949 253.032 34.9909 251.52C32.8789 245.184 28.1269 218.4 28.2469 212.976Z" fill="black"/>
<path d="M111.263 244.008C111.394 243.766 111.452 243.49 111.431 243.216C111.431 239.4 105.959 197.04 104.015 193.656C103.863 193.406 103.647 193.202 103.39 193.063C103.133 192.923 102.844 192.855 102.551 192.864C94.5112 191.88 26.6872 205.128 22.2232 208.224C21.5992 208.656 21.6952 209.736 21.7672 210.888C22.1512 217.2 28.9672 258.72 31.3672 258.48C31.6312 258.48 31.5352 258.288 30.9112 259.56C27.1672 267.264 20.0632 291.936 20.2072 296.904C20.2072 298.992 20.6872 301.704 22.7512 301.56C37.5592 299.736 110.159 288.216 131.039 283.92C131.855 283.752 132.383 283.008 132.359 281.784C132.113 279.744 131.495 277.768 130.535 275.952C127.607 270.456 115.463 248.688 111.263 244.008ZM31.5112 257.736C29.6392 255.336 22.7512 213.984 23.2792 209.4C28.5592 206.664 95.4712 193.728 102.479 194.784C104.399 200.064 109.367 238.2 109.679 242.784C101.183 245.712 42.3592 255.216 31.5112 257.736ZM32.5672 258.456C34.5832 257.952 103.247 246.456 109.535 244.8C112.967 247.992 128.471 275.568 129.479 277.92C115.703 280.32 33.9832 293.976 21.9592 295.8C22.1272 288.528 29.5912 263.112 32.5672 258.456Z" fill="black"/>
<path d="M41.5926 283.344C43.6806 283.032 87.9846 277.704 103.993 273.36C104.091 273.334 104.176 273.27 104.228 273.184C104.279 273.096 104.294 272.99 104.269 272.892C104.243 272.794 104.18 272.708 104.092 272.658C104.004 272.606 103.899 272.59 103.801 272.616C100.657 273.264 62.3046 278.376 41.5446 282.6C41.4873 282.59 41.4283 282.592 41.3723 282.608C41.3162 282.624 41.2644 282.652 41.2211 282.692C41.1774 282.73 41.1434 282.778 41.1213 282.832C41.0992 282.886 41.0896 282.944 41.0934 283.002C41.0973 283.06 41.1141 283.118 41.143 283.168C41.1718 283.218 41.2119 283.262 41.2599 283.294C41.308 283.328 41.3631 283.35 41.4207 283.358C41.4783 283.366 41.537 283.362 41.5926 283.344ZM73.9686 116.352C73.0719 118.377 72.3183 120.462 71.7126 122.592C71.6768 122.934 71.7711 123.277 71.9766 123.552C74.4006 127.2 99.2406 155.208 105.721 159.144C106.609 159.696 107.665 160.08 108.313 159.288C113.02 153.431 119.163 148.892 126.145 146.112C131.827 144.102 137.785 142.976 143.809 142.776C148.609 142.344 149.449 141.864 151.297 138.72C153.477 134.582 156.369 130.862 159.841 127.728C164.268 123.857 169.181 120.582 174.457 117.984C174.694 117.85 174.88 117.639 174.984 117.387C175.088 117.135 175.105 116.855 175.033 116.592C174.221 114.528 173.148 112.576 171.841 110.784C172.705 110.496 173.665 110.232 173.665 109.368C173.665 106.968 152.737 76.68 146.929 70.968C146.329 70.368 145.465 69.576 144.673 69.624C132.673 70.296 120.985 81.624 114.217 91.512C106.465 91.224 101.449 90.528 92.6166 94.248C86.3814 96.8945 80.7602 100.8 76.1046 105.72C75.3846 106.464 70.4886 111.648 70.4166 112.056C70.3446 112.464 70.4886 112.464 73.9686 116.352ZM169.969 115.68C159.961 117.384 153.577 125.712 148.873 134.76C146.785 138.792 146.977 138.984 144.769 138.936C140.908 138.717 137.035 138.862 133.201 139.368C130.388 139.788 127.623 140.48 124.945 141.432C118.849 143.592 111.865 150.504 108.145 155.64C108.066 155.746 107.965 155.833 107.85 155.897C107.734 155.962 107.607 156 107.475 156.012C107.344 156.023 107.212 156.007 107.087 155.963C106.963 155.92 106.849 155.851 106.753 155.76C98.9526 147.72 85.1526 133.608 78.2166 125.496C77.8806 125.136 78.4566 124.608 78.7926 124.992C83.2806 129.792 94.8726 141.288 107.305 153.792C111.505 148.44 117.985 141.96 124.393 139.704C127.887 138.458 131.523 137.651 135.217 137.304C138.676 137.041 142.15 137.041 145.609 137.304C147.025 135.672 154.033 117.144 169.921 115.08C169.967 115.114 170.005 115.158 170.032 115.209C170.06 115.26 170.075 115.316 170.077 115.374C170.079 115.432 170.069 115.489 170.046 115.542C170.023 115.595 169.988 115.642 169.945 115.68H169.969ZM144.649 71.568C149.449 74.928 168.985 103.848 171.529 108.912C167.114 110.311 162.853 112.152 158.809 114.408C154.979 116.328 151.626 119.078 148.994 122.457C146.361 125.837 144.516 129.761 143.593 133.944C134.977 119.928 122.953 104.496 114.961 93.144C115.441 92.832 128.929 72.504 144.649 71.568ZM93.1446 95.568C101.905 92.04 106.753 92.856 114.001 93.168C121.201 105.456 134.137 122.784 142.657 134.136C134.793 132.275 126.518 133.413 119.449 137.328C115.201 139.728 110.017 145.488 106.825 149.064C102.217 145.368 75.6246 117.048 71.3526 112.248C77.9286 104.808 84.0006 99.216 93.1446 95.472V95.568ZM49.2246 156.6C48.6316 156.184 47.9304 155.948 47.206 155.923C46.4816 155.897 45.7656 156.082 45.1446 156.456C44.6926 156.658 44.2841 156.946 43.9438 157.306C43.6028 157.666 43.3364 158.088 43.1593 158.551C42.9821 159.013 42.8977 159.506 42.9111 160.001C42.9242 160.496 43.0349 160.984 43.2366 161.436C43.4382 161.888 43.7273 162.296 44.0864 162.637C44.446 162.977 44.8688 163.244 45.3314 163.421C45.7939 163.599 46.2866 163.683 46.7819 163.67C47.2767 163.656 47.7646 163.546 48.2166 163.344C48.9392 163.186 49.5968 162.812 50.1017 162.272C50.607 161.732 50.936 161.051 51.0451 160.32C51.1547 159.588 51.039 158.841 50.7139 158.177C50.3888 157.512 49.8696 156.963 49.2246 156.6ZM47.6406 161.4C45.9606 161.928 44.9526 161.4 44.5446 160.584C43.7766 158.88 44.7366 156.264 47.2326 157.032C48.9846 157.68 50.4006 160.632 47.6406 161.52V161.4ZM171.265 46.776C171.961 48.192 175.201 47.664 176.617 47.208C177.361 46.968 177.841 46.704 177.913 45.984C178.129 44.184 178.369 28.584 177.553 27.072C177.468 26.9134 177.339 26.7834 177.181 26.698C177.023 26.6126 176.844 26.5756 176.665 26.592C174.104 26.5848 171.556 26.9571 169.105 27.696C168.121 28.296 170.401 45.192 171.265 46.776ZM169.609 28.272C171.826 27.9548 174.068 27.8504 176.305 27.96C176.449 29.736 176.065 45.12 176.041 45.36C175.027 45.7235 173.944 45.8548 172.873 45.744C172.705 45.192 172.417 43.704 172.057 41.832C170.999 37.359 170.182 32.8324 169.609 28.272ZM46.8966 136.344C47.127 136.462 47.3819 136.523 47.6406 136.523C47.8994 136.523 48.1542 136.462 48.3846 136.344C49.3119 135.772 50.0472 134.936 50.4966 133.944C50.5577 133.785 50.5765 133.613 50.5512 133.445C50.5259 133.277 50.4578 133.118 50.3526 132.984C49.2006 131.616 36.6246 117.048 35.0886 117.96C33.2027 119.181 31.4134 120.545 29.7366 122.04C29.669 122.101 29.6148 122.174 29.5777 122.257C29.5404 122.34 29.5211 122.429 29.5206 122.52C29.4726 123.768 43.4406 134.952 46.8966 136.344ZM35.3766 118.584C37.1286 119.856 43.0326 127.152 48.5046 133.608C48.2694 133.978 47.9779 134.311 47.6406 134.592C41.8874 130.91 36.3945 126.836 31.2006 122.4C32.5027 121.033 33.8981 119.758 35.3766 118.584ZM73.0806 65.64C73.6086 56.328 79.0326 52.008 84.6966 50.904C83.0886 56.808 83.3526 64.488 89.1846 65.472C91.9686 65.928 93.3366 64.488 95.3526 62.808C103.969 55.608 97.0086 48.408 87.2886 48.912C90.9126 38.976 99.2886 30.888 110.401 30.624C110.502 30.624 110.6 30.5836 110.672 30.5116C110.744 30.4395 110.785 30.3418 110.785 30.24C110.785 30.1382 110.744 30.0404 110.672 29.9684C110.6 29.8964 110.502 29.856 110.401 29.856C98.4006 29.616 88.9686 38.256 85.2486 49.056C78.8406 50.16 72.4806 54.96 72.3126 65.496C72.303 65.5466 72.3035 65.5981 72.3144 65.6483C72.3248 65.6985 72.3454 65.746 72.3742 65.7888C72.4034 65.8311 72.44 65.8673 72.4832 65.8953C72.526 65.9232 72.5744 65.9428 72.6246 65.952C72.6752 65.9616 72.7267 65.9607 72.7769 65.9502C72.8271 65.9398 72.8747 65.9193 72.9174 65.8905C72.9598 65.8612 72.996 65.8246 73.0239 65.7814C73.0518 65.7386 73.071 65.6906 73.0806 65.64ZM86.7366 50.616C90.3126 50.376 95.6406 51.48 97.1046 54.72C97.9446 56.568 97.1046 58.848 94.1286 61.344C93.3205 62.1534 92.3989 62.8407 91.3926 63.384C87.7926 64.92 83.8086 60.48 86.7366 50.616ZM93.6006 390.048C91.2818 389.426 88.8626 389.276 86.4844 389.604C84.1062 389.932 81.8179 390.732 79.7539 391.958C77.6899 393.182 75.8917 394.808 74.4656 396.74C73.0392 398.67 72.0133 400.866 71.4486 403.2C70.3826 408.048 71.2854 413.12 73.959 417.3C76.6326 421.482 80.8575 424.43 85.7046 425.496C90.5518 426.562 95.624 425.66 99.8048 422.986C103.987 420.312 106.935 416.088 108.001 411.24C108.456 408.902 108.444 406.498 107.966 404.164C107.487 401.83 106.552 399.616 105.214 397.646C103.875 395.676 102.159 393.99 100.167 392.686C98.1733 391.382 95.9417 390.486 93.6006 390.048ZM101.017 409.608C100.054 413.448 97.7483 416.818 94.5174 419.106C91.2866 421.396 87.3432 422.454 83.4006 422.088C79.7814 420.674 76.7766 418.028 74.9155 414.618C73.0544 411.206 72.4553 407.248 73.2246 403.44C74.1227 399.506 76.4066 396.026 79.6588 393.638C82.911 391.25 86.9142 390.112 90.9366 390.432C94.5916 391.942 97.5968 394.692 99.423 398.2C101.249 401.708 101.78 405.748 100.921 409.608H101.017Z" fill="black"/>
<path d="M125.568 396.888C123.479 396.168 121.24 395.994 119.064 396.384C118.162 394.316 117.053 392.346 115.752 390.504C117.312 389.088 121.584 385.152 120.552 383.304C116.879 378.91 112.519 375.142 107.64 372.144C105.603 371.002 103.36 370.276 101.04 370.008C99.5043 370.224 95.8559 376.2 95.0399 377.544C94.5119 377.544 92.6403 376.944 92.4963 376.872C92.4963 375.144 91.9923 368.904 90.4323 368.184C88.6878 367.542 86.8764 367.098 85.0323 366.864C83.3283 366.6 67.9923 369.408 66.8643 371.472C66.1203 372.864 67.8483 378.12 68.3523 379.584C67.0581 380.296 65.8149 381.098 64.6323 381.984C62.2323 383.688 62.8803 383.616 62.4483 383.424C61.926 383.174 61.3666 383.012 60.7923 382.944C58.875 381.82 56.6272 381.396 54.4323 381.744C52.2243 382.464 47.0163 394.32 46.1763 397.368C45.9014 398.136 45.8272 398.962 45.9603 399.768C46.5363 401.352 50.3763 402.624 51.9843 403.128C51.5401 406.216 51.5401 409.352 51.9843 412.44C49.8723 413.016 45.4799 414.312 45.7199 416.472C45.9599 418.632 51.5759 432.888 53.9039 434.016C55.1794 434.73 56.5897 435.168 58.0446 435.304C59.4994 435.44 60.9664 435.272 62.3523 434.808C63.1326 434.418 63.8866 433.978 64.6083 433.488C65.5683 434.208 66.5763 434.856 67.6083 435.48C66.8643 437.328 65.2083 441.456 65.7363 443.328C66.0003 444.314 66.7923 444.624 67.8963 445.034C70.9443 446.138 87.3603 450.074 89.8563 449.642C90.7923 449.498 91.2963 448.512 91.5843 447.578C92.1176 445.444 92.4313 443.267 92.5199 441.072C93.7526 440.95 94.9784 440.767 96.1923 440.522C96.9337 441.823 97.8819 443.001 99.0003 444C100.224 444.864 101.256 444.432 102.648 443.546C103.32 444.41 104.328 445.61 105.408 445.728C108.12 446.042 119.328 435.48 120.48 433.32C121.44 431.52 117.936 428.304 116.376 426.888C118.064 424.348 119.389 421.586 120.312 418.68C122.043 418.94 123.795 419.038 125.544 418.968C126.336 418.968 127.248 418.68 127.584 417.936C129.048 414.6 128.616 401.952 127.584 398.736C127.44 397.8 126.36 397.176 125.568 396.888ZM126.144 399.096C126.96 402.216 127.224 414 126.024 417.048C123.949 417.252 121.855 417.156 119.808 416.76C119.59 416.722 119.365 416.768 119.179 416.888C118.992 417.008 118.857 417.194 118.8 417.408C117.845 420.652 116.361 423.718 114.408 426.48C114.269 426.664 114.206 426.892 114.233 427.122C114.26 427.35 114.375 427.558 114.552 427.704C116.236 429.038 117.667 430.664 118.776 432.504C117.576 434.472 108.192 443.066 105.6 443.786C105.216 443.786 104.16 442.346 103.896 441.962C103.01 440.627 102.208 439.244 101.496 437.808C101.392 437.599 101.214 437.437 100.997 437.354C100.779 437.267 100.538 437.267 100.32 437.354C93.3599 439.968 90.7203 438.432 90.7203 440.16C90.7234 442.748 90.3019 445.318 89.4719 447.77C83.8319 447.155 78.2783 445.916 72.9123 444.074C73.1715 441.508 73.8863 439.012 75.0243 436.704C75.7443 435.096 72.8643 435.552 67.4883 430.08C67.3151 429.92 67.0882 429.83 66.8526 429.83C66.6165 429.83 66.3896 429.92 66.2163 430.08C63.8163 432.048 60.6963 433.968 60.0723 433.656C58.8483 433.056 53.2083 420.264 52.8723 417.672C54.5794 416.482 56.5173 415.664 58.5603 415.272C58.7781 415.21 58.9662 415.072 59.0901 414.882C59.2131 414.692 59.2642 414.464 59.2323 414.24C58.6441 410.842 58.6441 407.366 59.2323 403.968C59.269 403.758 59.2249 403.544 59.1093 403.366C58.9932 403.188 58.8143 403.06 58.6083 403.008C56.7987 402.534 55.0572 401.832 53.4243 400.92C52.8963 400.536 52.9443 400.56 52.9923 400.152C54.5458 394.55 57.037 389.25 60.3603 384.48C61.6563 384.12 65.1603 386.688 66.3603 387.6C66.4856 387.722 66.6536 387.79 66.8281 387.79C67.0031 387.79 67.1711 387.722 67.2963 387.6C68.399 386.456 69.5864 385.398 70.8483 384.432C74.4963 381.672 75.4803 382.032 75.1683 381.072C74.0648 378.664 73.4451 376.062 73.3443 373.416C73.7161 373.106 74.1385 372.864 74.5923 372.696C76.8331 371.81 79.1349 371.088 81.4803 370.536C84.3232 369.744 87.2451 369.268 90.1923 369.12C90.6963 369.336 91.1523 371.52 91.2723 372.192C92.1603 376.992 91.5603 377.976 92.2563 378.048C99.0963 378.72 100.488 380.616 100.968 379.776C102.299 377.448 103.851 375.254 105.6 373.224C106.104 372.72 106.08 372.48 107.592 373.344C112.11 376.296 116.155 379.912 119.592 384.072C119.952 384.696 116.832 388.008 114.552 389.952C113.76 390.648 114.888 390.96 116.952 394.896C119.016 398.832 118.536 399.936 119.64 399.696C121.768 399.186 123.959 398.984 126.144 399.096ZM459.238 198.552C454.207 196.497 448.936 195.101 443.547 194.4C439.611 193.776 434.976 193.152 431.064 192.648C434.832 187.32 445.99 173.832 447.862 170.544C448.39 169.656 447.387 168.408 446.64 167.664C442.464 163.2 434.4 161.52 428.208 160.56C424.656 159.984 409.824 158.16 407.304 159.36C404.28 160.8 381.912 194.4 381.24 199.512C381.24 200.376 381.528 200.712 382.368 201.024C385.896 202.32 401.808 204.336 405.36 205.176C400.56 213.576 379.224 241.968 377.136 245.976C376.632 246.984 376.944 247.584 377.544 247.776C379.704 248.634 381.926 249.324 384.192 249.84C385.056 250.104 386.952 248.928 389.712 247.248C402.096 239.808 455.232 204.72 459.312 200.184C459.426 200.078 459.513 199.948 459.574 199.804C459.631 199.661 459.657 199.506 459.648 199.351C459.644 199.197 459.6 199.045 459.531 198.907C459.461 198.769 459.36 198.648 459.238 198.552ZM407.664 227.352C387.264 240.816 380.376 244.752 380.136 244.92C383.424 239.904 403.848 211.92 407.352 205.224C407.412 205.094 407.444 204.954 407.444 204.81C407.444 204.668 407.41 204.526 407.348 204.398C407.286 204.268 407.197 204.156 407.084 204.066C406.974 203.976 406.844 203.912 406.704 203.88C404.304 203.016 386.832 201.144 382.704 199.68C383.232 195.216 405.024 161.472 407.664 160.128C410.304 158.784 435.912 161.832 440.715 165.264C438.192 170.184 424.272 187.416 422.016 191.424C421.56 192.24 421.416 193.032 422.304 193.248C423.192 193.464 445.75 196.104 450.672 197.712C444.672 202.728 414.384 222.84 407.664 227.256V227.352ZM253.704 80.616C253.704 80.832 253.848 81.096 254.208 82.488C254.302 82.79 254.51 83.0435 254.788 83.1958C255.064 83.3476 255.39 83.3865 255.696 83.304C256.002 83.215 256.26 83.0081 256.412 82.7289C256.566 82.45 256.602 82.1215 256.512 81.816C256.272 80.88 256.056 80.088 255.912 79.704C255.772 79.4404 255.54 79.2384 255.258 79.1376C254.979 79.0364 254.67 79.0433 254.394 79.1572C254.118 79.2711 253.894 79.4836 253.768 79.7533C253.64 80.023 253.616 80.3306 253.704 80.616Z" fill="black"/>
</svg>
